<svg xmlns="http://www.w3.org/2000/svg" viewBox="0 0 368 368"><path d="M312 0H56C25.128 0 0 25.12 0 56v256c0 30.88 25.128 56 56 56h256c30.872 0 56-25.12 56-56V56c0-30.88-25.128-56-56-56zm40 312c0 22.056-17.944 40-40 40H56c-22.056 0-40-17.944-40-40V160h66.8c-.152.648-.208 1.312-.344 1.96a100.346 100.346 0 00-1.416 8.032c-.144 1.04-.296 2.08-.4 3.136-.384 3.592-.64 7.208-.64 10.872 0 57.344 46.656 104 104 104s104-46.656 104-104c0-3.664-.256-7.288-.632-10.888-.104-1.04-.256-2.064-.4-3.096a99.03 99.03 0 00-1.44-8.144c-.136-.624-.184-1.264-.336-1.88H352V312zM96 184c0-10.128 1.696-19.984 5.072-29.344C113.416 119.568 146.744 96 184 96c4.656 0 9.256.368 13.752 1.08 29.256 4.64 54.512 23.84 66.632 51.168a86.085 86.085 0 012.544 6.408c0 .008.008.008.008.016.008.016.008.024.016.04C270.304 164.016 272 173.872 272 184c0 48.52-39.48 88-88 88s-88-39.48-88-88zm256-40h-72.024c-.168-.4-.368-.776-.536-1.176-.48-1.128-1.008-2.224-1.528-3.32a89.896 89.896 0 00-1.888-3.84c-.568-1.088-1.176-2.152-1.776-3.208-.696-1.216-1.4-2.424-2.136-3.608a102.571 102.571 0 00-2.024-3.088 97.985 97.985 0 00-2.368-3.368 110.397 110.397 0 00-4.848-6.088c-.8-.936-1.624-1.856-2.456-2.76a121.26 121.26 0 00-2.808-2.928 100.857 100.857 0 00-2.656-2.576c-.984-.92-2-1.816-3.016-2.696a99.826 99.826 0 00-2.816-2.36 107.434 107.434 0 00-3.224-2.472c-.984-.728-1.96-1.456-2.968-2.144a96.021 96.021 0 00-3.416-2.224c-1.024-.648-2.048-1.304-3.096-1.912a104.838 104.838 0 00-3.6-1.976c-1.064-.568-2.128-1.144-3.216-1.68-1.248-.608-2.512-1.16-3.784-1.72-1.096-.48-2.184-.984-3.296-1.424-1.312-.528-2.656-.984-4-1.464-1.104-.392-2.2-.8-3.32-1.16-1.408-.44-2.832-.808-4.264-1.192-1.096-.296-2.176-.616-3.28-.88-1.52-.352-3.064-.624-4.6-.912-1.04-.192-2.072-.432-3.12-.592-1.728-.272-3.488-.44-5.24-.624-.888-.088-1.76-.232-2.656-.304A111.973 111.973 0 00184 80c-2.696 0-5.368.112-8.024.32-.896.072-1.768.208-2.656.304-1.752.184-3.504.352-5.232.624-1.064.168-2.096.4-3.152.6-1.528.288-3.064.552-4.568.904-1.128.264-2.224.592-3.336.896-1.408.376-2.816.744-4.2 1.176-1.144.36-2.256.784-3.384 1.176-1.312.464-2.632.92-3.928 1.432-1.144.456-2.264.968-3.392 1.464-1.232.544-2.472 1.08-3.68 1.672-1.136.552-2.24 1.152-3.352 1.744a96.256 96.256 0 00-3.448 1.896c-1.104.648-2.184 1.336-3.264 2.016a106.357 106.357 0 00-3.232 2.104 108.9 108.9 0 00-3.16 2.28 103.59 103.59 0 00-3.016 2.304c-1.032.824-2.032 1.68-3.032 2.544-.944.816-1.872 1.64-2.784 2.488-.976.912-1.928 1.84-2.872 2.784a101.809 101.809 0 00-7.632 8.568 119.831 119.831 0 00-2.448 3.184 93.922 93.922 0 00-2.184 3.104 95.713 95.713 0 00-2.184 3.336c-.688 1.104-1.344 2.232-1.992 3.36s-1.288 2.256-1.896 3.416c-.64 1.216-1.232 2.464-1.824 3.712-.528 1.12-1.064 2.24-1.56 3.384-.176.408-.384.792-.552 1.2H16V56c0-22.056 17.944-40 40-40h256c22.056 0 40 17.944 40 40v88z"/><path d="M184 128c-30.872 0-56 25.12-56 56s25.128 56 56 56 56-25.12 56-56-25.128-56-56-56zm0 96c-22.056 0-40-17.944-40-40s17.944-40 40-40 40 17.944 40 40-17.944 40-40 40zM312 48h-24c-4.424 0-8 3.584-8 8v24c0 4.416 3.576 8 8 8h24c4.424 0 8-3.584 8-8V56c0-4.416-3.576-8-8-8zm-8 24h-8v-8h8v8z"/></svg>