<?xml version="1.0" encoding="utf-8"?>
<!-- Generator: Adobe Illustrator 22.0.1, SVG Export Plug-In . SVG Version: 6.00 Build 0)  -->
<svg version="1.1" id="Слой_1" xmlns="http://www.w3.org/2000/svg" xmlns:xlink="http://www.w3.org/1999/xlink" x="0px" y="0px"
	 viewBox="0 0 64.5 64.5" style="enable-background:new 0 0 64.5 64.5;" xml:space="preserve">
<style type="text/css">
	.st0{fill:none;stroke:#000000;stroke-width:3;}
</style>
<path class="st0" d="M59.4,32L32.2,59c-1,1-2.3,1.7-3.6,1.9c-0.9,0.4-1.8,0.6-2.8,0.6l-17-0.2c-3.9,0-7.1-3.2-7.1-7.1L1.5,37.4
	c0-2.2,1-4.2,2.6-5.5c0.1-0.2,0.2-0.3,0.4-0.5l27.2-27c2.7-2.7,7.2-2.7,9.9,0l17.8,17.7C62.2,24.9,62.2,29.3,59.4,32z M18.3,44.3
	c-1.9-1.9-5-1.9-6.9,0c-1.9,1.9-1.9,5,0,6.9c1.9,1.9,5,1.9,6.9,0C20.2,49.2,20.2,46.2,18.3,44.3z"/>
<path class="st0" d="M16,49.9c0,0-9.6-8.6-9.6-26.8s4.2-21.5,6-21.5s5.1,3.6,5.4,18.5"/>
</svg>
