<svg
 xmlns="http://www.w3.org/2000/svg"
 xmlns:xlink="http://www.w3.org/1999/xlink"
 width="53.5px" height="74.5px">
<path fill-rule="evenodd"  stroke="rgb(255, 255, 255)" stroke-width="3px" stroke-linecap="butt" stroke-linejoin="miter" fill="none"
 d="M35.680,24.534 C36.858,26.737 36.535,29.516 34.655,31.369 C32.781,33.217 29.974,33.540 27.743,32.391 C27.127,34.340 25.513,35.850 23.480,36.330 L23.480,55.609 L29.599,49.543 C27.187,45.765 27.956,40.350 31.697,36.641 C35.952,32.423 50.496,31.447 50.496,31.447 C50.496,31.447 49.512,45.866 45.257,50.085 C41.002,54.303 34.517,54.714 30.772,51.001 C30.680,50.910 30.602,50.810 30.515,50.715 L23.480,57.689 L23.480,71.500 L21.414,71.500 L21.414,57.693 L15.877,52.204 C13.125,54.845 8.428,54.535 5.335,51.483 C2.218,48.408 1.498,37.898 1.498,37.898 C1.498,37.898 12.151,38.609 15.268,41.684 C17.854,44.235 18.496,47.893 17.075,50.611 L21.414,54.913 L21.414,36.436 C19.071,36.164 17.164,34.559 16.480,32.397 C14.246,33.559 11.427,33.240 9.547,31.387 C7.664,29.530 7.342,26.746 8.527,24.541 C6.108,23.808 4.338,21.615 4.338,18.990 C4.338,16.369 6.103,14.178 8.516,13.442 C7.345,11.241 7.670,8.468 9.547,6.618 C11.427,4.764 14.246,4.445 16.480,5.607 C17.231,3.234 19.450,1.500 22.104,1.500 C24.763,1.500 26.985,3.239 27.732,5.618 C29.965,4.463 32.778,4.785 34.655,6.635 C36.529,8.482 36.856,11.250 35.691,13.449 C38.093,14.192 39.846,16.377 39.846,18.990 C39.846,21.606 38.087,23.794 35.680,24.534 Z"/>
</svg>
