<?xml version="1.0" encoding="utf-8"?>
<!-- Generator: Adobe Illustrator 22.0.1, SVG Export Plug-In . SVG Version: 6.00 Build 0)  -->
<svg version="1.1" id="Слой_1" xmlns="http://www.w3.org/2000/svg" xmlns:xlink="http://www.w3.org/1999/xlink" x="0px" y="0px"
	 viewBox="0 0 62.5 63.5" style="enable-background:new 0 0 62.5 63.5;" xml:space="preserve">
<style type="text/css">
	.st0{fill:none;stroke:#000000;stroke-width:3;}
</style>
<path class="st0" d="M8.8,52.2c-9.7-9.7-9.7-25.5,0-35.2C24.3,1.5,59.5,1.5,59.5,1.5s0,35.2-15.5,50.7C34.3,62,18.5,62,8.8,52.2z"/>
<path class="st0" d="M2.4,69.1c0,0-5.9-47.2,54.3-66.9"/>
<path class="st0" d="M35.1,13.7v-0.7h-0.7V6.3h1.5v5.9h15.4v1.5H35.1z M44.6,26.9H19v-0.7h-0.7v-14h1.5v13.2h25V26.9z M38.8,43.1
	H10.1v-0.7H8.7V23.2h1.5v18.4h28.6V43.1z"/>
</svg>
