<svg
 xmlns="http://www.w3.org/2000/svg"
 xmlns:xlink="http://www.w3.org/1999/xlink"
 width="74.5px" height="74.5px">
<path fill-rule="evenodd"  stroke="rgb(255, 255, 255)" stroke-width="3px" stroke-linecap="butt" stroke-linejoin="miter" fill="rgb(3, 3, 3)"
 d="M67.347,37.500 C67.113,37.676 66.837,37.799 66.522,37.799 C66.206,37.799 65.930,37.676 65.696,37.500 L62.500,37.500 L62.500,35.500 L65.471,35.500 C65.727,35.200 66.096,34.999 66.522,34.999 C66.948,34.999 67.316,35.200 67.573,35.500 L71.500,35.500 L71.500,37.500 L67.347,37.500 ZM65.860,29.958 C65.113,30.158 64.346,29.715 64.146,28.968 C63.946,28.221 64.389,27.454 65.136,27.254 C65.882,27.054 66.650,27.497 66.850,28.244 C67.050,28.991 66.607,29.758 65.860,29.958 ZM63.192,22.556 C62.523,22.942 61.666,22.713 61.280,22.043 C60.893,21.374 61.123,20.518 61.792,20.131 C62.462,19.744 63.318,19.974 63.705,20.643 C64.091,21.313 63.862,22.169 63.192,22.556 ZM63.184,50.240 C63.853,50.627 64.082,51.483 63.696,52.153 C63.309,52.822 62.453,53.052 61.783,52.665 C61.114,52.278 60.884,51.422 61.271,50.753 C61.658,50.083 62.514,49.854 63.184,50.240 ZM56.719,16.096 C56.172,15.549 56.172,14.663 56.719,14.116 C57.266,13.569 58.152,13.569 58.699,14.116 C59.246,14.663 59.246,15.549 58.699,16.096 C58.152,16.643 57.266,16.643 56.719,16.096 ZM58.687,56.697 C59.233,57.244 59.233,58.130 58.687,58.677 C58.140,59.224 57.254,59.224 56.707,58.677 C56.160,58.130 56.160,57.244 56.707,56.697 C57.254,56.150 58.140,56.150 58.687,56.697 ZM50.775,11.532 C50.105,11.145 49.875,10.289 50.262,9.619 C50.649,8.950 51.505,8.720 52.175,9.107 C52.844,9.494 53.074,10.350 52.687,11.019 C52.300,11.689 51.444,11.918 50.775,11.532 ZM50.760,61.258 C51.429,60.871 52.285,61.101 52.672,61.770 C53.059,62.440 52.829,63.296 52.160,63.683 C51.490,64.069 50.634,63.840 50.247,63.170 C49.861,62.501 50.090,61.644 50.760,61.258 ZM43.851,8.662 C43.104,8.462 42.661,7.694 42.861,6.947 C43.061,6.200 43.829,5.757 44.576,5.957 C45.323,6.157 45.766,6.925 45.566,7.672 C45.366,8.419 44.598,8.862 43.851,8.662 ZM43.835,64.124 C44.581,63.924 45.349,64.367 45.549,65.114 C45.749,65.861 45.306,66.628 44.559,66.828 C43.812,67.028 43.045,66.585 42.845,65.838 C42.645,65.091 43.088,64.324 43.835,64.124 ZM36.521,40.000 C34.938,40.000 33.616,38.942 33.184,37.500 L18.500,37.500 L18.500,35.500 L33.184,35.500 C33.518,34.384 34.387,33.511 35.500,33.169 L35.500,12.500 L37.500,12.500 L37.500,33.156 C38.953,33.581 40.021,34.909 40.021,36.500 C40.021,38.433 38.454,40.000 36.521,40.000 ZM37.500,10.500 L35.500,10.500 L35.500,7.318 C35.211,7.061 35.021,6.698 35.021,6.281 C35.021,5.865 35.211,5.501 35.500,5.245 L35.500,1.500 L37.500,1.500 L37.500,5.423 C37.690,5.662 37.821,5.952 37.821,6.281 C37.821,6.611 37.690,6.900 37.500,7.139 L37.500,10.500 ZM28.978,8.680 C28.232,8.880 27.464,8.437 27.264,7.690 C27.064,6.943 27.507,6.175 28.254,5.975 C29.001,5.775 29.768,6.218 29.968,6.965 C30.168,7.712 29.725,8.479 28.978,8.680 ZM22.060,11.548 C21.390,11.935 20.534,11.705 20.147,11.036 C19.761,10.366 19.990,9.510 20.660,9.123 C21.329,8.736 22.185,8.966 22.572,9.636 C22.959,10.305 22.729,11.161 22.060,11.548 ZM14.151,58.664 C13.604,58.117 13.604,57.231 14.151,56.684 C14.698,56.137 15.584,56.137 16.131,56.684 C16.678,57.231 16.678,58.117 16.131,58.664 C15.584,59.211 14.698,59.211 14.151,58.664 ZM14.139,16.109 C13.592,15.562 13.592,14.676 14.139,14.129 C14.686,13.583 15.572,13.583 16.119,14.129 C16.666,14.676 16.666,15.562 16.119,16.109 C15.572,16.656 14.686,16.656 14.139,16.109 ZM11.057,52.656 C10.388,53.043 9.532,52.813 9.145,52.143 C8.758,51.474 8.988,50.617 9.657,50.231 C10.327,49.844 11.183,50.074 11.570,50.743 C11.956,51.413 11.727,52.269 11.057,52.656 ZM9.649,22.565 C8.979,22.178 8.750,21.322 9.136,20.653 C9.523,19.983 10.379,19.754 11.049,20.140 C11.718,20.527 11.948,21.383 11.561,22.053 C11.175,22.722 10.318,22.952 9.649,22.565 ZM6.982,29.963 C6.236,29.763 5.792,28.995 5.993,28.248 C6.193,27.502 6.960,27.058 7.707,27.258 C8.454,27.459 8.897,28.226 8.697,28.973 C8.497,29.720 7.729,30.163 6.982,29.963 ZM7.373,35.500 L10.500,35.500 L10.500,37.500 L7.147,37.500 C6.913,37.676 6.637,37.799 6.322,37.799 C6.006,37.799 5.730,37.676 5.496,37.500 L1.500,37.500 L1.500,35.500 L5.271,35.500 C5.527,35.200 5.896,34.999 6.322,34.999 C6.748,34.999 7.116,35.200 7.373,35.500 ZM6.987,42.835 C7.734,42.634 8.501,43.078 8.702,43.825 C8.902,44.571 8.458,45.339 7.712,45.539 C6.965,45.739 6.197,45.296 5.997,44.549 C5.797,43.802 6.240,43.035 6.987,42.835 ZM22.074,61.242 C22.744,61.628 22.974,62.485 22.587,63.154 C22.200,63.824 21.344,64.053 20.675,63.667 C20.005,63.280 19.776,62.424 20.162,61.754 C20.549,61.085 21.405,60.855 22.074,61.242 ZM28.995,64.106 C29.742,64.306 30.185,65.074 29.985,65.820 C29.785,66.567 29.017,67.011 28.270,66.811 C27.524,66.610 27.080,65.843 27.280,65.096 C27.481,64.349 28.248,63.906 28.995,64.106 ZM35.500,62.500 L37.500,62.500 L37.500,65.623 C37.690,65.862 37.821,66.152 37.821,66.481 C37.821,66.810 37.690,67.100 37.500,67.339 L37.500,71.500 L35.500,71.500 L35.500,67.518 C35.211,67.261 35.021,66.898 35.021,66.481 C35.021,66.065 35.211,65.701 35.500,65.445 L35.500,62.500 ZM65.856,42.839 C66.603,43.040 67.046,43.807 66.846,44.554 C66.646,45.301 65.878,45.744 65.131,45.544 C64.384,45.344 63.941,44.576 64.141,43.829 C64.341,43.082 65.109,42.639 65.856,42.839 Z"/>
</svg>
