<svg version="1.1" id="Слой_1" xmlns="http://www.w3.org/2000/svg" x="0" y="0" viewBox="0 0 64.5 64.5" xml:space="preserve"><style>.st0{fill:none;stroke:#000;stroke-width:3}</style><path class="st0" d="M59.4 32L32.2 59c-1 1-2.3 1.7-3.6 1.9-.9.4-1.8.6-2.8.6l-17-.2c-3.9 0-7.1-3.2-7.1-7.1l-.2-16.8c0-2.2 1-4.2 2.6-5.5.1-.2.2-.3.4-.5l27.2-27c2.7-2.7 7.2-2.7 9.9 0l17.8 17.7c2.8 2.8 2.8 7.2 0 9.9zM18.3 44.3c-1.9-1.9-5-1.9-6.9 0-1.9 1.9-1.9 5 0 6.9 1.9 1.9 5 1.9 6.9 0 1.9-2 1.9-5 0-6.9z"/><path class="st0" d="M16 49.9s-9.6-8.6-9.6-26.8 4.2-21.5 6-21.5 5.1 3.6 5.4 18.5"/></svg>