<svg xmlns="http://www.w3.org/2000/svg" width="53.5" height="74.5"><path stroke="#FFF" stroke-width="3" fill="none" d="M35.68 24.534c1.178 2.203.855 4.982-1.025 6.835-1.874 1.848-4.681 2.171-6.912 1.022a5.886 5.886 0 01-4.263 3.939v19.279l6.119-6.066c-2.412-3.778-1.643-9.193 2.098-12.902 4.255-4.218 18.799-5.194 18.799-5.194s-.984 14.419-5.239 18.638c-4.255 4.218-10.74 4.629-14.485.916-.092-.091-.17-.191-.257-.286l-7.035 6.974V71.5h-2.066V57.693l-5.537-5.489c-2.752 2.641-7.449 2.331-10.542-.721-3.117-3.075-3.837-13.585-3.837-13.585s10.653.711 13.77 3.786c2.586 2.551 3.228 6.209 1.807 8.927l4.339 4.302V36.436a5.863 5.863 0 01-4.934-4.039c-2.234 1.162-5.053.843-6.933-1.01-1.883-1.857-2.205-4.641-1.02-6.846-2.419-.733-4.189-2.926-4.189-5.551 0-2.621 1.765-4.812 4.178-5.548-1.171-2.201-.846-4.974 1.031-6.824 1.88-1.854 4.699-2.173 6.933-1.011A5.889 5.889 0 0122.104 1.5a5.888 5.888 0 015.628 4.118c2.233-1.155 5.046-.833 6.923 1.017 1.874 1.847 2.201 4.615 1.036 6.814 2.402.743 4.155 2.928 4.155 5.541 0 2.616-1.759 4.804-4.166 5.544z"/></svg>