<svg xmlns="http://www.w3.org/2000/svg" width="74.5" height="74.5"><path fill-rule="evenodd" stroke="#FFF" stroke-width="3" fill="#030303" d="M67.347 37.5c-.234.176-.51.299-.825.299-.316 0-.592-.123-.826-.299H62.5v-2h2.971c.256-.3.625-.501 1.051-.501.426 0 .794.201 1.051.501H71.5v2h-4.153zm-1.487-7.542a1.4 1.4 0 11-.725-2.703 1.4 1.4 0 01.725 2.703zm-2.668-7.402a1.4 1.4 0 11-1.399-2.425 1.4 1.4 0 011.399 2.425zm-.008 27.684a1.4 1.4 0 11-1.401 2.424 1.4 1.4 0 011.401-2.424zm-6.465-34.144a1.4 1.4 0 111.979-1.98 1.4 1.4 0 01-1.979 1.98zm1.968 40.601a1.4 1.4 0 11-1.98 1.981 1.4 1.4 0 011.98-1.981zm-7.912-45.165a1.4 1.4 0 111.4-2.426 1.4 1.4 0 01-1.4 2.426zm-.015 49.726a1.4 1.4 0 111.4 2.424 1.4 1.4 0 01-1.4-2.424zM43.851 8.662a1.4 1.4 0 11.725-2.705 1.4 1.4 0 01-.725 2.705zm-.016 55.462a1.4 1.4 0 11.724 2.704 1.4 1.4 0 01-.724-2.704zM36.521 40a3.488 3.488 0 01-3.337-2.5H18.5v-2h14.684a3.483 3.483 0 012.316-2.331V12.5h2v20.656a3.488 3.488 0 012.521 3.344 3.5 3.5 0 01-3.5 3.5zm.979-29.5h-2V7.318a1.382 1.382 0 01-.479-1.037c0-.416.19-.78.479-1.036V1.5h2v3.923c.19.239.321.529.321.858 0 .33-.131.619-.321.858V10.5zm-8.522-1.82a1.4 1.4 0 11-.724-2.704 1.4 1.4 0 01.724 2.704zm-6.918 2.868a1.4 1.4 0 11-1.4-2.426 1.4 1.4 0 011.4 2.426zm-7.909 47.116a1.4 1.4 0 111.979-1.98 1.4 1.4 0 01-1.979 1.98zm-.012-42.555a1.4 1.4 0 111.979-1.98 1.4 1.4 0 01-1.979 1.98zm-3.082 36.547a1.4 1.4 0 11-1.4-2.423 1.4 1.4 0 011.4 2.423zM9.649 22.565a1.4 1.4 0 111.4-2.425 1.4 1.4 0 01-1.4 2.425zm-2.667 7.398a1.4 1.4 0 11.725-2.704 1.4 1.4 0 01-.725 2.704zm.391 5.537H10.5v2H7.147c-.234.176-.51.299-.825.299-.316 0-.592-.123-.826-.299H1.5v-2h3.771c.256-.3.625-.501 1.051-.501.426 0 .794.201 1.051.501zm-.386 7.335a1.4 1.4 0 11.725 2.704 1.4 1.4 0 01-.725-2.704zm15.087 18.407a1.399 1.399 0 11-1.397 2.424 1.399 1.399 0 011.397-2.424zm6.921 2.864a1.4 1.4 0 11-.724 2.704 1.4 1.4 0 01.724-2.704zM35.5 62.5h2v3.123c.19.239.321.529.321.858 0 .329-.131.619-.321.858V71.5h-2v-3.982a1.382 1.382 0 01-.479-1.037c0-.416.19-.78.479-1.036V62.5zm30.356-19.661a1.4 1.4 0 11-.726 2.706 1.4 1.4 0 01.726-2.706z"/></svg>